<?xml version="1.0" encoding="utf-8"?>
<!-- Generator: Adobe Illustrator 16.0.0, SVG Export Plug-In . SVG Version: 6.00 Build 0)  -->
<!DOCTYPE svg PUBLIC "-//W3C//DTD SVG 1.1//EN" "http://www.w3.org/Graphics/SVG/1.1/DTD/svg11.dtd">
<svg version="1.1" id="Capa_1" xmlns="http://www.w3.org/2000/svg" xmlns:xlink="http://www.w3.org/1999/xlink" x="0px" y="0px"
	 width="566.93px" height="566.93px" viewBox="0 0 566.93 566.93" enable-background="new 0 0 566.93 566.93" xml:space="preserve">
<g>
	<path fill="#ECE9F0" d="M566.93,286.014c0-75.72-29.487-146.951-83.001-200.464S359.185,2.548,283.465,2.548
		c-75.72,0-146.95,29.487-200.464,83.001S0,210.293,0,286.014v134.209c0,75.841,61.765,137.606,137.606,137.606
		c9.101,0,16.382-7.281,16.382-16.382V299.119c0-9.102-7.281-16.382-16.382-16.382c-41.985,0-79.603,18.809-104.843,48.539v-45.262
		c0-138.214,112.488-250.702,250.701-250.702c138.213,0,250.701,112.488,250.701,250.702c0,1.092,0.121,2.184,0.364,3.275
		c-0.243,1.093-0.364,2.186-0.364,3.277v45.262c-25.24-29.73-62.857-48.539-104.843-48.539c-9.102,0-16.382,7.281-16.382,16.383V548
		c0,9.101,7.28,16.382,16.382,16.382c75.841,0,137.606-61.766,137.606-137.606V292.566c0-1.092-0.121-2.185-0.364-3.277
		C566.809,288.197,566.93,287.105,566.93,286.014z M121.104,316.714V523.73c-49.995-7.888-88.461-51.329-88.461-103.508
		C32.764,368.043,71.109,324.602,121.104,316.714z M445.826,530.283V323.267c49.994,7.888,88.461,51.329,88.461,103.509
		C534.166,479.075,495.82,522.396,445.826,530.283z"/>
</g>
</svg>
