<?xml version="1.0" encoding="utf-8"?>
<!-- Generator: Adobe Illustrator 16.0.0, SVG Export Plug-In . SVG Version: 6.00 Build 0)  -->
<!DOCTYPE svg PUBLIC "-//W3C//DTD SVG 1.1//EN" "http://www.w3.org/Graphics/SVG/1.1/DTD/svg11.dtd">
<svg version="1.1" id="Capa_1" xmlns="http://www.w3.org/2000/svg" xmlns:xlink="http://www.w3.org/1999/xlink" x="0px" y="0px"
	 width="512px" height="512px" viewBox="0 0 512 512" enable-background="new 0 0 512 512" xml:space="preserve">
<g>
	<path fill="#E2E0E0" d="M274.775,69.374c-6.324-0.529-12.641-0.797-18.775-0.797c-59.052,0-114.569,22.996-156.326,64.752
		c-41.756,41.756-64.752,97.274-64.752,156.326v11.418H14.967v-9.584c0-20.088,2.441-40.131,7.256-59.572
		c0.994-4.012-1.454-8.069-5.465-9.063c-4.012-0.993-8.069,1.454-9.063,5.466C2.589,248.936,0,270.188,0,291.488v11.432
		c0,7.234,5.885,13.119,13.12,13.119h4.341v31.235c-9.935,3.175-17.149,12.493-17.149,23.468v77.851
		c0,13.583,11.05,24.634,24.633,24.634c9.845,0,18.356-5.809,22.297-14.177h15.682v13.999c0,21.266,17.301,38.567,38.567,38.567
		h25.748c10.938,0,19.837-8.899,19.837-19.837V327.557c0-10.938-8.898-19.838-19.837-19.838H101.49
		c-21.266,0-38.567,17.302-38.567,38.567v13.999H47.241c-2.897-6.151-8.262-10.916-14.813-13.01v-31.234h4.341
		c7.234,0,13.12-5.885,13.12-13.12v-13.266c0-55.054,21.439-106.812,60.368-145.742c38.93-38.93,90.688-60.368,145.742-60.368
		c5.72,0,11.617,0.25,17.528,0.745c4.127,0.352,7.736-2.715,8.08-6.833C281.952,73.338,278.895,69.719,274.775,69.374z
		 M132.108,327.557v164.222c0,2.685-2.184,4.87-4.87,4.87h-18.265V322.685h18.265C129.924,322.686,132.108,324.871,132.108,327.557z
		 M77.89,346.286c0-10.397,6.762-19.24,16.117-22.377v171.517c-9.355-3.137-16.117-11.979-16.117-22.377V346.286z M62.923,444.083
		H49.578v-68.831h13.346V444.083z M34.611,448.593c0,5.33-4.336,9.667-9.667,9.667c-5.33,0-9.667-4.337-9.667-9.667v-77.851
		c0-5.33,4.336-9.667,9.667-9.667c5.331,0,9.667,4.337,9.667,9.667V448.593z"/>
	<path fill="#E2E0E0" d="M274.779,34.357c-6.086-0.449-12.15-0.685-18.023-0.702c-0.254,0-0.502-0.001-0.756-0.001
		c-67.881,0-131.797,26.267-180.042,74.008C50.355,133,30.717,163.059,17.588,197.007c-1.491,3.854,0.425,8.188,4.281,9.678
		c0.887,0.343,1.8,0.506,2.697,0.506c3.001,0,5.834-1.819,6.981-4.785c12.363-31.967,30.848-60.263,54.939-84.105
		c45.593-45.116,106.025-69.818,170.225-69.679c5.523,0.016,11.231,0.238,16.967,0.661c4.125,0.311,7.71-2.79,8.014-6.913
		C281.996,38.249,278.901,34.662,274.779,34.357L274.779,34.357z"/>
	<path fill="#E2E0E0" d="M489.354,203.514c-3.921,1.31-6.036,5.551-4.726,9.47c8.23,24.624,12.403,50.419,12.403,76.671v11.418
		h-19.956v-11.418c0-26.544-4.633-52.481-13.771-77.093c-1.439-3.875-5.747-5.851-9.621-4.41c-3.874,1.439-5.849,5.745-4.41,9.621
		c8.517,22.939,12.836,47.125,12.836,71.882v13.266c0,7.234,5.886,13.119,13.12,13.119h4.342v31.235
		c-6.552,2.095-11.917,6.859-14.813,13.011h-15.682v-13.999c0-21.266-17.302-38.567-38.567-38.567h-25.748
		c-10.938,0-19.838,8.899-19.838,19.838v116.901c0,4.133,3.351,7.483,7.483,7.483s7.483-3.351,7.483-7.483V327.557
		c0-2.686,2.186-4.871,4.871-4.871h18.265v173.964h-18.265c-2.686,0-4.871-2.186-4.871-4.87v-15.429
		c0-4.133-3.351-7.483-7.483-7.483s-7.483,3.351-7.483,7.483v15.429c0,10.938,8.899,19.837,19.838,19.837h25.748
		c21.266,0,38.567-17.301,38.567-38.567V459.05h15.682c3.94,8.368,12.451,14.177,22.297,14.177
		c13.583,0,24.633-11.051,24.633-24.634v-77.851c0-10.975-7.215-20.292-17.149-23.468v-31.235h4.341
		c7.234,0,13.12-5.885,13.12-13.119v-13.266c0-27.868-4.434-55.26-13.176-81.415C497.515,204.319,493.274,202.205,489.354,203.514
		L489.354,203.514z M434.11,473.049c0,10.397-6.763,19.24-16.117,22.377V323.909c9.355,3.137,16.117,11.979,16.117,22.377V473.049z
		 M449.077,375.252h13.345v68.831h-13.345V375.252z M496.722,448.593c0,5.33-4.336,9.667-9.666,9.667s-9.667-4.337-9.667-9.667
		v-77.851c0-5.33,4.337-9.667,9.667-9.667s9.666,4.337,9.666,9.667V448.593z"/>
	<path fill="#E2E0E0" d="M504.517,53.87c4.133,0,7.483-3.351,7.483-7.483v-1.502c0-24.538-19.963-44.5-44.499-44.5h-126.4
		c-24.536,0-44.499,19.962-44.499,44.5v103.333c0,22.041,16.107,40.39,37.169,43.896v30.443c0,5.222,3.157,9.787,8.044,11.628
		c1.453,0.548,2.951,0.813,4.428,0.813c3.489,0,6.868-1.483,9.29-4.239l33.427-38.042h78.542c24.536,0,44.499-19.963,44.499-44.5
		V78.278c0-4.133-3.351-7.483-7.483-7.483s-7.483,3.35-7.483,7.483v69.939c0,16.285-13.248,29.533-29.532,29.533h-81.929
		c-2.152,0-4.201,0.927-5.622,2.543l-31.213,35.524v-30.584c0-4.133-3.351-7.483-7.483-7.483h-0.153
		c-16.283,0-29.532-13.249-29.532-29.533V44.883c0-16.285,13.249-29.533,29.532-29.533h126.4c16.284,0,29.532,13.249,29.532,29.533
		v1.502C497.033,50.52,500.384,53.87,504.517,53.87L504.517,53.87z"/>
	<path fill="#E2E0E0" d="M464.671,49.025c0-4.182-1.906-8.036-5.229-10.573c-3.322-2.538-7.542-3.362-11.577-2.26L393.96,50.906
		c-5.769,1.576-9.799,6.853-9.799,12.833v51.156c-6.834-1.751-14.937-0.511-22.014,4.028c-12.187,7.813-16.778,22.47-10.236,32.672
		c3.836,5.983,10.663,9.125,18.111,9.125c5.253,0,10.812-1.562,15.852-4.793c8.104-5.195,12.844-13.417,13.19-21.342
		c0.037-0.308,0.064-0.618,0.064-0.936v-33.079l50.575-13.806v18.893c-1.241-0.321-2.528-0.548-3.856-0.665
		c-6.107-0.536-12.551,1.149-18.157,4.745c-5.606,3.595-9.829,8.751-11.89,14.521c-2.27,6.357-1.667,12.973,1.652,18.152
		c3.32,5.178,9.082,8.487,15.807,9.078c0.742,0.065,1.489,0.097,2.239,0.097c5.419,0,10.993-1.684,15.919-4.842
		c5.606-3.595,9.829-8.751,11.89-14.521c0.883-2.473,1.325-4.983,1.349-7.435c0.004-0.104,0.016-0.206,0.016-0.31L464.671,49.025
		L464.671,49.025z M377.795,143.329c-5.599,3.589-11.496,2.979-13.285,0.188c-1.79-2.793,0.117-8.405,5.717-11.996
		c2.708-1.736,5.484-2.489,7.833-2.489c2.509,0,4.528,0.86,5.453,2.302C385.302,134.126,383.394,139.739,377.795,143.329z
		 M399.128,85.057V65.008l50.575-13.805v20.048L399.128,85.057z M449.212,127.189c-0.939,2.629-3.079,5.165-5.873,6.956
		c-2.793,1.791-5.988,2.681-8.771,2.434c-1.218-0.107-3.422-0.541-4.516-2.246c-1.093-1.706-0.567-3.89-0.156-5.04
		c0.938-2.629,3.079-5.165,5.872-6.955c2.489-1.596,5.298-2.474,7.849-2.474c0.312,0,0.62,0.013,0.923,0.04
		c1.217,0.107,3.421,0.541,4.514,2.246C450.147,123.855,449.623,126.04,449.212,127.189L449.212,127.189z"/>
</g>
</svg>
