<?xml version="1.0" encoding="utf-8"?>
<!-- Generator: Adobe Illustrator 16.0.0, SVG Export Plug-In . SVG Version: 6.00 Build 0)  -->
<!DOCTYPE svg PUBLIC "-//W3C//DTD SVG 1.1//EN" "http://www.w3.org/Graphics/SVG/1.1/DTD/svg11.dtd">
<svg version="1.1" id="Capa_1" xmlns="http://www.w3.org/2000/svg" xmlns:xlink="http://www.w3.org/1999/xlink" x="0px" y="0px"
	 width="566.93px" height="566.93px" viewBox="0 0 566.93 566.93" enable-background="new 0 0 566.93 566.93" xml:space="preserve">
<path fill="#E8E8E8" d="M445.392,371.098c-5.899-1.584-11.959,1.912-13.542,7.82c-1.583,5.895,1.916,11.968,7.82,13.551
	c5.899,1.583,11.972-1.925,13.556-7.82C454.804,378.74,451.301,372.681,445.392,371.098z"/>
<path fill="#E8E8E8" d="M127.255,392.469c5.909-1.583,9.403-7.656,7.82-13.551c-1.583-5.908-7.643-9.404-13.538-7.82
	c-5.909,1.578-9.417,7.643-7.833,13.551C115.283,390.544,121.36,394.052,127.255,392.469z"/>
<path fill="#E8E8E8" d="M554.256,357.217c8.34-27.443,12.418-53.248,12.418-78.604c0-73.557-29.991-143.056-84.456-195.699
	C429.138,31.607,357.964,2.039,283.465,2.039C130.85,2.039,0.255,125.527,0.255,278.613c0,25.359,4.079,51.168,12.422,78.621
	c-10.13,7.998-15.052,21.57-11.562,34.672l28.643,106.849c4.706,17.622,22.816,28.245,40.645,23.482l33.897-9.088
	c7.769,11.289,22.051,16.994,35.944,13.283l42.747-11.462c17.673-4.736,28.201-22.972,23.465-40.641l-40.083-149.604
	c-4.74-17.678-22.984-28.206-40.654-23.465L82.986,312.71c-4.503,1.206-8.538,3.292-11.977,6.017
	c-2.206-10.299-3.581-20.516-4.113-30.598c12.28-3.862,21.449-14.581,22.751-27.911c9.126-93.557,96.074-169.674,193.818-169.674
	c97.743,0,184.691,76.117,193.817,169.674c1.298,13.331,10.472,24.049,22.752,27.911c-0.532,10.082-1.908,20.299-4.114,30.598
	c-3.442-2.725-7.474-4.811-11.977-6.017l-42.734-11.449c-17.682-4.736-35.917,5.787-40.653,23.465L360.473,474.33
	c-4.736,17.673,5.792,35.904,23.465,40.641l42.756,11.462c13.837,3.698,28.137-1.95,35.935-13.283l33.906,9.092
	c17.89,4.775,35.952-5.947,40.633-23.478l28.646-106.87C569.309,378.787,564.364,365.197,554.256,357.217z M88.708,334.081
	l42.739-11.453c5.896-1.583,11.973,1.929,13.556,7.819l40.078,149.605c1.579,5.891-1.929,11.964-7.82,13.547l-10.688,2.863
	l-20.035-74.807c-1.579-5.899-7.643-9.403-13.547-7.824c-5.904,1.583-9.407,7.646-7.824,13.551l20.039,74.811l-10.684,2.863
	c-5.887,1.575-11.968-1.938-13.551-7.828c0-0.005,0-0.009,0-0.009L80.879,347.624C79.301,341.737,82.812,335.66,88.708,334.081z
	 M96.736,492.268l-32.051,8.594c-5.895,1.574-11.968-1.898-13.555-7.829L22.492,386.188c-1.488-5.589,1.601-11.432,7.124-13.339
	c0.255-0.092,0.523-0.169,0.705-0.217l31.601-8.473C65.148,372.213,59.257,353.753,96.736,492.268z M22.673,289.673h22.146
	c0.965,17.63,4.222,35.567,9.724,53.557l-21.263,5.705C27.146,328.299,23.651,308.748,22.673,289.673z M499.303,258.063
	C488.844,150.882,391.559,68.415,283.465,68.415c-108.155,0-205.388,82.515-215.843,189.653c-0.519,5.316-5.281,9.481-10.852,9.481
	H22.652c6.185-133.034,123.09-243.386,260.813-243.386c137.718,0,254.628,110.352,260.809,243.386H510.15
	C504.588,267.549,499.822,263.384,499.303,258.063z M544.252,289.673c-0.978,19.075-4.473,38.626-10.602,59.262l-21.268-5.701
	c5.502-17.997,8.759-35.931,9.723-53.561H544.252z M445.959,497.224c0,0,0,0-0.005,0c-1.579,5.892-7.66,9.403-13.538,7.833
	l-10.692-2.867l20.039-74.807c1.583-5.904-1.92-11.968-7.824-13.551c-5.899-1.579-11.968,1.925-13.547,7.824l-20.039,74.807
	l-10.684-2.868c-5.892-1.578-9.403-7.655-7.825-13.542l40.083-149.605c1.324-4.935,5.805-8.2,10.692-8.2
	c0.943,0,1.907,0.126,2.863,0.381l42.734,11.449c5.896,1.579,9.412,7.655,7.833,13.542L445.959,497.224z M544.438,386.176
	l-28.643,106.865c-1.583,5.926-7.668,9.395-13.542,7.825l-32.06-8.599c37.492-138.566,31.584-120.045,34.811-128.107
	c33.664,9.031,31.7,8.473,32.393,8.719C542.833,374.757,545.926,380.604,544.438,386.176z"/>
</svg>
