<?xml version="1.0" encoding="utf-8"?>
<!-- Generator: Adobe Illustrator 16.0.0, SVG Export Plug-In . SVG Version: 6.00 Build 0)  -->
<!DOCTYPE svg PUBLIC "-//W3C//DTD SVG 1.1//EN" "http://www.w3.org/Graphics/SVG/1.1/DTD/svg11.dtd">
<svg version="1.1" id="Capa_1" xmlns="http://www.w3.org/2000/svg" xmlns:xlink="http://www.w3.org/1999/xlink" x="0px" y="0px"
	 width="566.93px" height="566.93px" viewBox="0 0 566.93 566.93" enable-background="new 0 0 566.93 566.93" xml:space="preserve">
<g>
	<g>
		<path fill="#F9F7F7" d="M541.481,166.213v-0.019C476.696,23.696,308.658-39.302,166.16,25.484
			C103.791,53.839,53.805,103.827,25.449,166.196C8.634,203.009-0.034,243.017,0.034,283.489v88.751
			c-0.045,17.548,6.932,34.385,19.377,46.757l38.188,38.197l5.187,14.304c16.006,42.427,56.961,70.205,102.3,69.384
			c1.984,0,3.996-0.246,5.999-0.341l0.473,1.304c7.142,19.739,28.935,29.951,48.673,22.809h0.001l1.549-0.558
			c19.733-7.114,29.961-28.878,22.847-48.609c-0.001-0.003-0.002-0.006-0.002-0.009L169.79,308.574
			c-7.196-19.7-28.952-29.891-48.693-22.808l-1.53,0.558c-16.773,5.996-27.083,22.891-24.744,40.549
			c-16.249,11.83-29.047,27.783-37.073,46.209c-0.647-1.268-0.999-2.666-1.03-4.09V283.49
			c0-125.228,101.517-226.744,226.745-226.744c125.228,0,226.744,101.517,226.744,226.744v85.502
			c-0.057,0.67-0.189,1.332-0.396,1.974c-8.093-17.546-20.539-32.731-36.156-44.11c2.332-17.648-7.966-34.529-24.725-40.531
			l-1.568-0.566c-19.726-7.074-41.46,3.117-48.637,22.807l-74.845,206.904c-7.121,19.728,3.098,41.494,22.826,48.617l1.549,0.567
			c19.741,7.12,41.52-3.089,48.675-22.816l0.473-1.304c1.993,0.095,4.015,0.34,5.999,0.34c45.336,0.823,86.292-26.95,102.3-69.374
			l6.056-16.741l35.76-35.77c12.442-12.369,19.419-29.202,19.377-46.746V283.49C566.962,243.023,558.293,203.021,541.481,166.213z
			 M115.173,313.93c2.137-4.602,6.036-8.148,10.817-9.846l1.531-0.557c9.932-3.595,20.898,1.539,24.498,11.469l74.835,206.905
			c3.573,9.898-1.554,20.82-11.453,24.394c-0.008,0.004-0.017,0.006-0.026,0.01l-1.549,0.558
			c-9.929,3.577-20.881-1.552-24.489-11.47l-2.834-7.908l-71.992-199.035C112.788,323.715,113.025,318.488,115.173,313.93z
			 M100.756,346.089v-0.038l63.668,175.935c-34.225,0.396-65.647-18.865-80.825-49.544c0.236,0,0.482,0,0.718,0
			c0.236,0,0.501,0,0.747,0c0.945,0,1.795-0.18,2.692-0.265s1.55-0.085,2.324-0.218c1.238-0.235,2.459-0.551,3.656-0.944
			c0.68-0.208,1.36-0.34,2.022-0.595c1.267-0.523,2.495-1.137,3.675-1.833c0.557-0.312,1.143-0.539,1.682-0.889
			c13.649-8.805,17.577-27.007,8.773-40.656c-1.144-1.774-2.476-3.421-3.974-4.91l-33.851-33.879
			C77.509,371.799,87.448,357.193,100.756,346.089z M37.825,283.489v85.501c-0.021,7.521,2.969,14.737,8.304,20.039l46.426,46.435
			c4.138,4.139,4.138,10.847,0,14.984c-4.138,4.138-10.846,4.138-14.984,0l-44.801-44.82c-8.889-8.833-13.873-20.856-13.841-33.388
			v-88.751c-0.062-35.729,7.178-71.094,21.276-103.925h20.653C45.696,212.111,37.834,247.582,37.825,283.489z M283.465,37.849
			c-87.76,0.019-168.849,46.833-212.752,122.82h-21.55C116.986,31.266,276.869-18.653,406.271,49.171
			c47.636,24.968,86.53,63.861,111.497,111.497h-21.55C452.313,84.68,371.225,37.868,283.465,37.849z M392.273,499.159
			l-10.25,28.343l-2.835,7.908c-3.595,9.936-14.563,15.076-24.499,11.482c-0.002-0.001-0.006-0.002-0.008-0.004l-1.55-0.566
			c-9.91-3.567-15.054-14.493-11.488-24.403l74.845-206.904c3.584-9.923,14.534-15.062,24.457-11.478
			c0.007,0.002,0.015,0.006,0.021,0.008l1.568,0.566c9.904,3.561,15.048,14.475,11.489,24.378c-0.004,0.009-0.007,0.017-0.01,0.026
			L392.273,499.159z M404.111,521.985l41.75-115.441l21.871-60.466c12.993,10.844,22.79,25.018,28.343,41.004l-35.013,35.021
			c-11.495,11.524-11.495,30.179,0,41.702c1.517,1.501,3.192,2.832,4.998,3.969c0.595,0.378,1.219,0.633,1.832,0.944
			c1.217,0.682,2.479,1.274,3.779,1.776c0.737,0.273,1.483,0.453,2.239,0.661c1.216,0.359,2.452,0.641,3.704,0.841
			c0.803,0.113,1.596,0.17,2.399,0.227c0.651,0,1.285,0.189,1.89,0.189s1.143-0.133,1.719-0.17c0.577-0.038,0.945,0.057,1.37,0
			C469.867,503.021,438.403,522.371,404.111,521.985z M548,372.24c0.031,12.533-4.953,24.56-13.841,33.397l-37.233,37.243
			l-7.558,7.558c-4.139,4.139-10.847,4.139-14.984,0c-4.138-4.138-4.138-10.846,0-14.983l46.426-46.436
			c5.326-5.303,8.312-12.514,8.295-20.029v-85.501c-0.009-35.907-7.87-71.377-23.033-103.925h20.652
			c14.099,32.831,21.338,68.196,21.276,103.925V372.24z"/>
	</g>
</g>
</svg>
